<svg xmlns="http://www.w3.org/2000/svg" version="1.1" xmlns:xlink="http://www.w3.org/1999/xlink" xmlns:svgjs="http://svgjs.dev/svgjs" width="200" height="100" viewBox="0 0 1500 268"><g transform="matrix(1,0,0,1,-0.9090908517707703,-0.459542229568882)"><svg viewBox="0 0 396 71" data-background-color="#50a060" preserveAspectRatio="xMidYMid meet" height="268" width="1500" xmlns="http://www.w3.org/2000/svg" xmlns:xlink="http://www.w3.org/1999/xlink"><g id="tight-bounds" transform="matrix(1,0,0,1,0.2399999848674952,0.12174439663951375)"><svg viewBox="0 0 395.52 70.75651120672099" height="70.75651120672099" width="395.52"><g><svg viewBox="0 0 613.055271906127 109.67246211813627" height="70.75651120672099" width="395.52"><g><rect width="6.231167488466794" height="109.67246211813627" x="194.9921476415692" y="0" fill="#096a2e" opacity="1" stroke-width="0" stroke="transparent" fill-opacity="1" class="rect-qz-0" data-fill-palette-color="primary" rx="1%" id="qz-0" data-palette-color="#096a2e"></rect></g><g transform="matrix(1,0,0,1,217.53527190612706,0.27281706994561006)"><svg viewBox="0 0 395.52 109.12682797824505" height="109.12682797824505" width="395.52"><g id="textblocktransform"><svg viewBox="0 0 395.52 109.12682797824505" height="109.12682797824505" width="395.52" id="textblock"><g><svg viewBox="0 0 395.52 69.09620959390655" height="69.09620959390655" width="395.52"><g transform="matrix(1,0,0,1,0,0)"><svg width="395.52" viewBox="-0.711111088884 -36.21 212.681367473908 37.160000000000004" height="69.09620959390655" data-palette-color="#096a2e"><path d="M-0.66-1.54L7.91-35.11Q8.2-36.16 9.35-36.21L9.35-36.21 10.96-36.21Q12.01-36.21 12.16-35.06L12.16-35.06Q13.06-25.66 13.16-21.56 13.26-17.46 13.01-13.89L13.01-13.89 25.81-35.25Q26.34-36.21 27.29-36.21L27.29-36.21 28.86-36.21Q29.49-36.21 29.75-35.73 30-35.25 29.86-34.64L29.86-34.64 21.31-1.1Q21 0 19.8 0L19.8 0 18.36 0Q17.75 0 17.48-0.45 17.21-0.9 17.36-1.54L17.36-1.54 23.1-24.05Q21-20.41 18.1-15.88 15.21-11.35 14.31-9.91L14.31-9.91Q13.06-7.86 11.79-7.96L11.79-7.96 10.79-8.01Q9.4-8.11 9.55-10.01L9.55-10.01Q9.91-15.45 9.3-24.56L9.3-24.56 3.3-1.1Q3 0 1.81 0L1.81 0 0.34 0Q-0.24 0-0.52-0.45-0.81-0.9-0.66-1.54L-0.66-1.54ZM32.59-4.71L32.59-4.71 33.13-4.71Q34.08-4.71 34.86-3.86 35.64-3 35.64-1.83 35.64-0.66 34.84 0.15 34.03 0.95 32.79 0.95L32.79 0.95 32.3 0.95Q31.3 0.95 30.56 0.12 29.83-0.71 29.83-1.88 29.83-3.05 30.61-3.88 31.39-4.71 32.59-4.71ZM44.43-36.21L44.43-36.21 52.73-36.21Q56.49-36.21 58.5-34.23 60.52-32.25 60.49-28.17 60.47-24.1 58.58-21.64 56.68-19.19 54.78-18.41L54.78-18.41Q58.08-16.5 57.17-11.3 56.27-6.1 53.02-3.05 49.78 0 44.04 0L44.04 0 38.79 0Q38.18 0 37.9-0.45 37.62-0.9 37.79-1.54L37.79-1.54 45.72-32.74 44.48-32.74Q43.82-32.74 43.32-33.14 42.82-33.54 42.99-34.06L42.99-34.06 43.28-35.21Q43.38-35.6 43.76-35.9 44.14-36.21 44.43-36.21ZM45.77-16.89L45.77-16.89 42.33-3.39 45.48-3.54Q48.02-3.66 50.25-5.73 52.49-7.79 53.18-11.24 53.88-14.7 52.29-15.99L52.29-15.99Q51.68-16.55 50.43-16.72 49.19-16.89 45.77-16.89ZM52.73-32.74L49.78-32.74 46.67-20.46 50.73-20.36Q53.07-20.29 54.4-22.19 55.73-24.1 56.16-26.62 56.59-29.15 55.73-30.94 54.88-32.74 52.73-32.74L52.73-32.74ZM64.81-4.71L64.81-4.71 65.35-4.71Q66.3-4.71 67.08-3.86 67.86-3 67.86-1.83 67.86-0.66 67.06 0.15 66.25 0.95 65.01 0.95L65.01 0.95 64.52 0.95Q63.52 0.95 62.79 0.12 62.05-0.71 62.05-1.88 62.05-3.05 62.83-3.88 63.62-4.71 64.81-4.71ZM76.65-36.21L76.65-36.21 84.51-36.21Q88.54-36.21 90.59-34.5 92.64-32.79 92.69-29.47 92.74-26.15 91.47-22.64 90.2-19.14 87.91-17.49 85.61-15.84 82.85-15.42 80.09-14.99 77.5-14.94L77.5-14.94 73.94-1.1Q73.65 0 72.45 0L72.45 0 71.01 0Q70.4 0 70.12-0.45 69.84-0.9 70.01-1.54L70.01-1.54 77.94-32.79Q76.7-32.79 76.17-32.79 75.65-32.79 75.34-33.22 75.04-33.64 75.21-34.2L75.21-34.2 75.5-35.21Q75.6-35.6 75.95-35.9 76.31-36.21 76.65-36.21ZM82-32.74L82-32.74 78.36-18.41 81.14-18.55Q85.15-18.85 86.4-21.09 87.66-23.34 88.15-25.7 88.64-28.05 88.64-29.59L88.64-29.59Q88.64-32.54 85.24-32.69L85.24-32.69Q84.66-32.74 82-32.74ZM106.73-31.81L98.18-14.45 105.53-14.45 106.73-31.81ZM105.33-10.84L96.45-10.84 91.59-1Q91.03 0.15 89.73 0L89.73 0 88.59-0.1Q87.73-0.15 87.46-0.74 87.19-1.34 87.54-2L87.54-2 104.19-34.11Q105.24-36.11 106.95-36.11L106.95-36.11 108.95-36.16Q110.93-36.16 110.78-33.74L110.78-33.74 109.05-1.1Q108.95-0.05 107.53 0L107.53 0 105.85-0.05Q104.58-0.05 104.68-1.39L104.68-1.39 105.33-10.84ZM135.21-32.59L135.21-32.59 127.57-32.59 119.52-1.1Q119.22 0 118 0L118 0 116.56 0Q115.95 0 115.68-0.45 115.41-0.9 115.56-1.54L115.56-1.54 123.47-32.59 115.56-32.59Q114.12-32.59 114.46-33.74L114.46-33.74 114.8-35.21Q114.98-35.84 115.27-36.02 115.56-36.21 116.32-36.21L116.32-36.21 135.82-36.21Q137.36-36.21 137.02-34.79L137.02-34.79 136.75-33.64Q136.56-32.59 135.21-32.59ZM132.58-1.54L141.14-35.11Q141.44-36.16 142.59-36.21L142.59-36.21 144.1-36.21Q144.64-36.21 144.97-35.83 145.3-35.45 145.39-34.64L145.39-34.64 149.84-9.35 156.38-35.11Q156.7-36.21 157.89-36.21L157.89-36.21 159.33-36.21Q159.94-36.21 160.21-35.75 160.48-35.3 160.33-34.64L160.33-34.64 151.79-1.1Q151.5 0 150.28 0L150.28 0 148.49 0Q148.13 0 147.88-0.22 147.64-0.44 147.49-1.54L147.49-1.54 143.1-26.76 136.53-1.1Q136.24 0 135.04 0L135.04 0 133.58 0Q132.99 0 132.71-0.45 132.43-0.9 132.58-1.54L132.58-1.54ZM175.3-31.81L166.75-14.45 174.1-14.45 175.3-31.81ZM173.91-10.84L165.02-10.84 160.16-1Q159.6 0.15 158.31 0L158.31 0 157.16-0.1Q156.3-0.15 156.03-0.74 155.77-1.34 156.11-2L156.11-2 172.76-34.11Q173.81-36.11 175.52-36.11L175.52-36.11 177.52-36.16Q179.5-36.16 179.35-33.74L179.35-33.74 177.62-1.1Q177.52-0.05 176.1 0L176.1 0 174.42-0.05Q173.15-0.05 173.25-1.39L173.25-1.39 173.91-10.84ZM181.4-1.54L189.97-35.11Q190.26-36.16 191.41-36.21L191.41-36.21 193.02-36.21Q194.07-36.21 194.22-35.06L194.22-35.06Q195.12-25.66 195.22-21.56 195.31-17.46 195.07-13.89L195.07-13.89 207.86-35.25Q208.4-36.21 209.35-36.21L209.35-36.21 210.92-36.21Q211.55-36.21 211.81-35.73 212.06-35.25 211.92-34.64L211.92-34.64 203.37-1.1Q203.05 0 201.86 0L201.86 0 200.42 0Q199.81 0 199.54-0.45 199.27-0.9 199.42-1.54L199.42-1.54 205.15-24.05Q203.05-20.41 200.16-15.88 197.27-11.35 196.36-9.91L196.36-9.91Q195.12-7.86 193.85-7.96L193.85-7.96 192.85-8.01Q191.46-8.11 191.6-10.01L191.6-10.01Q191.97-15.45 191.36-24.56L191.36-24.56 185.35-1.1Q185.06 0 183.86 0L183.86 0 182.4 0Q181.81 0 181.53-0.45 181.25-0.9 181.4-1.54L181.4-1.54Z" opacity="1" transform="matrix(1,0,0,1,0,0)" fill="#096a2e" class="wordmark-text-0" data-fill-palette-color="primary" id="text-0"></path></svg></g></svg></g><g transform="matrix(1,0,0,1,75.54432000000001,85.40816636999763)"><svg viewBox="0 0 244.43135999999996 23.71866160824742" height="23.71866160824742" width="244.43135999999996"><g transform="matrix(1,0,0,1,0,0)"><svg width="244.43135999999996" viewBox="4 -36.52 378.88 36.760000000000005" height="23.71866160824742" data-palette-color="#096a2e"><path d="M9.96-35.99L9.96-18.75Q9.96-14.99 10.45-12.38 10.94-9.77 11.87-8.08 12.79-6.4 14.09-5.57 15.38-4.74 16.99-4.59L16.99-4.59 16.99 0.24Q14.01 0.05 11.6-1.2 9.18-2.44 7.52-4.76 5.86-7.08 4.93-10.45 4-13.82 4-18.16L4-18.16 4-35.99 9.96-35.99ZM26.07-35.99L31.98-35.99 31.98-18.16Q31.98-13.82 31.05-10.45 30.13-7.08 28.44-4.76 26.76-2.44 24.37-1.2 21.97 0.05 18.99 0.24L18.99 0.24 18.99-4.59Q20.61-4.79 21.9-5.59 23.19-6.4 24.12-8.06 25.05-9.72 25.56-12.33 26.07-14.94 26.07-18.75L26.07-18.75 26.07-35.99ZM60.54-11.18L60.54-35.99 66.5-35.99 66.5 0 60.54 0 48.44-21.29 48.44-32.52 60.54-11.18ZM46.43 0L40.48 0 40.48-35.99 46.43-35.99 46.43 0ZM81.49-35.99L81.49 0 75.53 0 75.53-35.99 81.49-35.99ZM88.47-35.99L115.86-35.99 115.86-31.98 105.12-31.98 105.12 0 99.21 0 99.21-31.98 88.47-31.98 88.47-35.99ZM122.99 0L122.99-35.99 128.95-35.99 128.95 0 122.99 0ZM143.98-20.21L143.98-16.21 130.95-16.21 130.95-20.21 143.98-20.21ZM130.95 0L130.95-4.44 145.5-4.44 145.5 0 130.95 0ZM130.95-35.99L145.5-35.99 145.5-31.54 130.95-31.54 130.95-35.99ZM153.7 0L153.7-35.99 159.56-35.99 159.56 0 153.7 0ZM161.56-35.99L164.54-35.99Q169.08-35.99 172.52-34.55 175.96-33.11 178.23-30.71 180.51-28.32 181.63-25.27 182.75-22.22 182.75-18.99L182.75-18.99Q182.75-14.55 181.8-11.4 180.85-8.25 179.38-6.13 177.92-4 176.09-2.78 174.26-1.56 172.55-0.95 170.84-0.34 169.42-0.17 168.01 0 167.32 0L167.32 0 161.56 0 161.56-4.3 165.37-4.3Q171.33-4.3 173.96-8.11 176.6-11.91 176.6-19.14L176.6-19.14Q176.6-21.39 176.06-23.58 175.52-25.78 173.99-27.56 172.45-29.35 169.81-30.44 167.18-31.54 162.98-31.54L162.98-31.54 161.56-31.54 161.56-35.99ZM204.43 0L204.43-35.99 210.29-35.99 210.29 0 204.43 0ZM212.29-35.99L214.78-35.99Q217.07-35.99 219.32-35.25 221.56-34.52 223.35-33.06 225.13-31.59 226.23-29.52 227.33-27.44 227.33-24.85L227.33-24.85Q227.33-22.12 226.4-19.9 225.47-17.68 223.81-16.16 222.15-14.65 219.81-13.82 217.46-12.99 214.63-12.99L214.63-12.99 212.29-12.99 212.29-17.29 215.66-17.29Q216.73-17.29 217.78-17.65 218.83-18.02 219.71-18.85 220.59-19.68 221.13-21.17 221.66-22.66 221.66-24.85L221.66-24.85Q221.66-25.73 221.42-26.88 221.17-28.03 220.42-29.08 219.66-30.13 218.29-30.83 216.93-31.54 214.68-31.54L214.68-31.54 212.29-31.54 212.29-35.99ZM234.16 0L234.16-35.99 240.12-35.99 240.12 0 234.16 0ZM255.16-20.21L255.16-16.21 242.12-16.21 242.12-20.21 255.16-20.21ZM242.12 0L242.12-4.44 256.67-4.44 256.67 0 242.12 0ZM242.12-35.99L256.67-35.99 256.67-31.54 242.12-31.54 242.12-35.99ZM263.94-18.16L263.94-18.16Q263.94-22.51 264.99-25.85 266.04-29.2 267.92-31.52 269.8-33.84 272.37-35.08 274.93-36.33 277.96-36.52L277.96-36.52 277.96-31.64Q276.3-31.45 274.83-30.62 273.37-29.79 272.29-28.17 271.22-26.56 270.58-24.07 269.95-21.58 269.9-18.16L269.9-18.16Q269.95-14.7 270.58-12.23 271.22-9.77 272.32-8.11 273.42-6.45 274.88-5.59 276.34-4.74 277.96-4.59L277.96-4.59 277.96 0.24Q274.98 0.05 272.39-1.2 269.8-2.44 267.92-4.76 266.04-7.08 264.99-10.45 263.94-13.82 263.94-18.16ZM279.91-31.69L279.91-36.52Q282.89-36.38 285.45-35.11 288.01-33.84 289.89-31.52 291.77-29.2 292.85-25.85 293.92-22.51 293.92-18.16L293.92-18.16Q293.92-13.82 292.85-10.45 291.77-7.08 289.89-4.76 288.01-2.44 285.48-1.2 282.94 0.05 279.91 0.24L279.91 0.24 279.91-4.59Q281.57-4.79 283.03-5.64 284.5-6.49 285.57-8.13 286.65-9.77 287.28-12.23 287.92-14.7 287.97-18.16L287.97-18.16Q287.92-21.63 287.28-24.1 286.65-26.56 285.55-28.2 284.45-29.83 282.99-30.69 281.52-31.54 279.91-31.69L279.91-31.69ZM302.12 0L302.12-35.99 307.98-35.99 307.98 0 302.12 0ZM309.98-35.99L312.48-35.99Q314.77-35.99 317.02-35.25 319.26-34.52 321.04-33.06 322.83-31.59 323.93-29.52 325.02-27.44 325.02-24.85L325.02-24.85Q325.02-22.12 324.1-19.9 323.17-17.68 321.51-16.16 319.85-14.65 317.5-13.82 315.16-12.99 312.33-12.99L312.33-12.99 309.98-12.99 309.98-17.29 313.35-17.29Q314.43-17.29 315.48-17.65 316.53-18.02 317.41-18.85 318.29-19.68 318.82-21.17 319.36-22.66 319.36-24.85L319.36-24.85Q319.36-25.73 319.12-26.88 318.87-28.03 318.11-29.08 317.36-30.13 315.99-30.83 314.62-31.54 312.38-31.54L312.38-31.54 309.98-31.54 309.98-35.99ZM331.76-35.99L337.72-35.99 337.72-4.44 354.27-4.44 354.27 0 331.76 0 331.76-35.99ZM360.37 0L360.37-35.99 366.33-35.99 366.33 0 360.37 0ZM381.37-20.21L381.37-16.21 368.33-16.21 368.33-20.21 381.37-20.21ZM368.33 0L368.33-4.44 382.88-4.44 382.88 0 368.33 0ZM368.33-35.99L382.88-35.99 382.88-31.54 368.33-31.54 368.33-35.99Z" opacity="1" transform="matrix(1,0,0,1,0,0)" fill="#096a2e" class="slogan-text-1" data-fill-palette-color="secondary" id="text-1"></path></svg></g></svg></g></svg></g></svg></g><g transform="matrix(1,0,0,1,0,0.27281706994561006)"><svg viewBox="0 0 178.68019086547812 109.12682797824505" height="109.12682797824505" width="178.68019086547812"><g><svg xmlns="http://www.w3.org/2000/svg" xmlns:xlink="http://www.w3.org/1999/xlink" version="1.1" x="0" y="0" viewBox="5.4 26.1 89.39999999999999 54.6" enable-background="new 0 0 100 100" xml:space="preserve" height="109.12682797824505" width="178.68019086547812" class="icon-icon-0" data-fill-palette-color="accent" id="icon-0"><polygon points="12,26.1 12,28.1 8.6,27.1 10.1,31.6 7,37.6 7,40.1 5.4,42.8 7,51.4 7,57.2 12,60.4 12,62.1 16.9,63.1 22,67   28.2,67.9 31.5,66.8 36.3,73.3 38.3,71.8 41.4,72.5 45.2,79.5 48,80.7 48,77 54.1,72.7 62,73.3 62,71 73.5,70.9 79.1,79.4 81,79.7   81,76 77.7,69.2 78.6,64.7 84,59 84,55.1 81.3,51.7 83,50.7 84.7,52.3 86.8,45.6 91.4,41.8 90.6,38 94.8,34.1 92.3,29.6 90.1,30.3   88.8,34.4 83.5,36.4 81.7,40 77.9,41.1 74,45.9 71.6,45.6 71.7,41.5 68.7,37.7 66,39.6 66,45.1 65,46.2 63.3,44.1 63.7,39.3   67.6,36.5 61.9,35.2 60,36 56.6,36 59.7,33 52.5,31.7 39.4,31.1 21.9,28.8 " fill="#c9efc7" data-fill-palette-color="accent"></polygon></svg></g></svg></g></svg></g><defs></defs></svg><rect width="395.52" height="70.75651120672099" fill="none" stroke="none" visibility="hidden"></rect></g></svg></g></svg>